PathFileType	4	(X/Y/Z)	C:/Users/alexw/Dropbox/ABI/BIOMENG 771 Files/BIOMENG_771/KinematicsLab/Right.trc	
DataRate	CameraRate	NumFrames	NumMarkers	Units	OrigDataRate	OrigDataStartFrame	OrigNumFrames	
120.00	120.00	15	8	mm	120.00	1242	1623	
Frame#	Time	RAsis			LAsis			RPsis			LPsis			RThighInferior			RThighLateral			RPatella			RThighSuperior			
		X1	Y1	Z1	X2	Y2	Z2	X3	Y3	Z3	X4	Y4	Z4	X5	Y5	Z5	X6	Y6	Z6	X7	Y7	Z7	X8	Y8	Z8	

1218	10.142	-396.45651	193.65027	1042.62170	-145.50670	156.88828	980.88898	-246.17598	388.42618	1027.61707	-191.81262	373.16547	1017.63330	-463.99069	215.29803	594.59229	-440.06534	177.13533	693.59418	-415.11707	202.61403	487.58661	-448.09595	287.36295	832.79663 
1219	10.150	-396.26804	194.03853	1042.11670	-145.21739	157.39749	980.88196	-247.52567	388.08292	1026.22375	-190.89116	374.06467	1017.79468	-464.59164	209.19148	595.55664	-439.62881	172.68770	695.08606	-415.14957	194.75508	488.06879	-448.77921	284.96497	832.96368 
1220	10.158	-396.11258	194.16487	1041.71826	-144.97653	157.90096	980.84509	-247.54872	388.68198	1025.63306	-190.99284	374.36978	1017.37195	-465.09192	203.06441	596.70972	-439.27097	168.33746	696.46014	-415.78406	187.32260	489.63495	-449.33939	282.24957	833.15527 
1221	10.167	-395.90631	194.25246	1041.29431	-144.62233	158.41640	980.77020	-246.55838	389.30359	1025.82764	-191.60139	374.38168	1016.77753	-465.41681	196.72076	597.88751	-438.77792	163.95633	697.90735	-416.43738	179.74384	491.40393	-449.80664	279.62436	833.17603 
1222	10.175	-395.64120	194.18028	1040.78052	-144.26807	158.72916	980.74255	-247.76881	389.07449	1024.42017	-191.24472	375.30087	1016.49146	-465.62802	190.77493	598.84381	-438.21933	159.58972	699.21075	-416.98630	172.41628	493.04834	-450.44467	276.85669	833.37378 
1223	10.183	-395.37979	194.12126	1040.29504	-143.91455	158.98854	980.76196	-248.24248	389.22156	1023.81458	-191.55017	375.62891	1016.34387	-465.83881	184.66635	599.97101	-437.54495	155.31187	700.49347	-417.19348	165.23236	494.72272	-450.92770	274.16916	833.47986 
1224	10.192	-395.14636	194.08176	1039.66296	-143.54381	159.23805	980.69958	-248.73984	389.34506	1023.31628	-191.82918	375.88107	1015.91638	-465.92859	178.54854	600.92346	-436.91818	151.23843	701.63574	-417.57288	158.14085	496.31537	-451.24332	271.33417	833.50244 
1225	10.200	-395.01492	193.94049	1039.13733	-143.16403	159.47491	980.62964	-248.77466	389.66476	1022.18085	-192.00551	376.09998	1015.02618	-465.96307	172.91774	601.96411	-436.06793	147.12129	702.74438	-418.01917	151.34454	498.02780	-451.52374	268.56726	833.41693 
1226	10.208	-394.81964	193.70250	1038.50854	-142.73941	159.67604	980.46466	-249.01424	389.87210	1021.43842	-192.20816	376.30215	1014.39087	-465.73303	167.06873	602.84888	-435.17209	143.11137	703.78729	-418.01556	144.48843	499.75955	-451.58032	265.81912	833.29431 
1227	10.217	-394.55081	193.43611	1037.79517	-142.33234	159.93375	980.19232	-249.32013	390.03613	1020.61176	-192.51611	376.50446	1013.66620	-465.41049	161.38191	603.71252	-434.13129	139.26398	704.75934	-417.86642	137.86519	501.45691	-451.73688	263.15411	833.13354 
1228	10.225	-394.49222	193.26033	1037.22046	-141.83081	160.20230	979.98230	-249.76694	390.11432	1020.01697	-193.01305	376.87720	1013.52936	-464.96231	156.07245	604.75702	-433.13828	135.47697	705.62250	-417.56625	131.77371	502.77628	-452.01108	260.53781	832.99274 
1229	10.233	-394.30988	193.05093	1036.59839	-141.43547	160.46452	979.82715	-250.18883	390.20398	1019.15228	-193.23535	377.06238	1013.04956	-464.25601	150.88544	605.61414	-431.83865	131.68391	706.73639	-417.17084	125.50616	504.41534	-451.93472	257.69513	832.63611 
1230	10.242	-394.02530	192.69189	1035.93176	-141.12727	160.67804	979.68268	-250.74057	390.34381	1018.30145	-193.73036	377.26910	1012.30298	-463.25269	145.65913	606.55164	-430.44006	127.99123	707.66028	-416.11859	119.36712	506.21915	-451.48669	254.57645	832.10651 
1231	10.250	-393.83566	192.34000	1035.40552	-140.80345	160.95992	979.60632	-251.06534	390.49600	1017.23462	-194.08267	377.38599	1011.49445	-462.06561	140.69383	607.54785	-428.96411	124.44477	708.55615	-415.32681	113.68612	507.87344	-451.37433	251.87370	832.53662 
1232	10.258	-393.80161	192.12805	1035.06226	-140.50296	161.18883	979.50165	-251.67586	390.65082	1016.38818	-194.38528	377.59579	1010.86273	-461.03326	135.84375	609.01355	-427.34296	121.13032	709.49127	-413.76257	107.90733	509.25894	-451.18015	249.23743	832.41614 
